Coordinates
version=1
nRows=54
nColumns=12
inDegrees=yes

Units are S.I. units (second, meters, Newtons, ...)
Angles are in degrees

endheader
time	SC_y	SC_z	SC_x	AC_y	AC_z	AC_x	GH_y	GH_z	GH_yy	EL_x	PS_y
       0.0               -28.9          33.15          45.63          68.09         -19.28         -15.66         -41.69          18.92         -5.219          73.91          94.04
  0.005963               -28.9          33.15          45.63          68.09         -19.28         -15.66         -41.68          18.92         -5.197           73.9          94.05
   0.01193              -28.89          33.15          45.64          68.09         -19.28         -15.65         -41.67          18.92         -5.174          73.89          94.06
   0.01789              -28.89          33.15          45.64          68.08         -19.28         -15.65         -41.66          18.92         -5.149          73.88          94.06
   0.02385              -28.89          33.16          45.65          68.08         -19.27         -15.64         -41.65          18.91         -5.123          73.87          94.07
   0.02981              -28.89          33.16          45.65          68.08         -19.27         -15.64         -41.64          18.91         -5.095          73.86          94.08
   0.03578              -28.88          33.16          45.66          68.07         -19.27         -15.63         -41.63          18.91         -5.065          73.84          94.09
   0.04174              -28.88          33.16          45.66          68.07         -19.26         -15.63         -41.62          18.91         -5.033          73.83          94.09
    0.0477              -28.88          33.16          45.67          68.06         -19.26         -15.62          -41.6          18.91         -4.998          73.81           94.1
   0.05367              -28.87          33.16          45.68          68.06         -19.25         -15.61         -41.59           18.9         -4.961           73.8          94.11
   0.05963              -28.87          33.16          45.69          68.06         -19.25          -15.6         -41.57           18.9         -4.922          73.78          94.12
   0.06559              -28.86          33.16           45.7          68.05         -19.24          -15.6         -41.56           18.9         -4.879          73.76          94.13
   0.07156              -28.86          33.16          45.71          68.04         -19.24         -15.59         -41.54           18.9         -4.833          73.74          94.15
   0.07752              -28.85          33.16          45.72          68.04         -19.23         -15.58         -41.52          18.89         -4.784          73.72          94.16
   0.08348              -28.85          33.17          45.73          68.03         -19.23         -15.57          -41.5          18.89          -4.73           73.7          94.17
   0.08944              -28.84          33.17          45.74          68.02         -19.22         -15.56         -41.47          18.89         -4.672          73.67          94.19
   0.09541              -28.84          33.17          45.75          68.02         -19.21         -15.55         -41.45          18.88         -4.608          73.65           94.2
    0.1014              -28.83          33.17          45.77          68.01         -19.21         -15.53         -41.42          18.88          -4.54          73.62          94.22
    0.1073              -28.82          33.17          45.78           68.0          -19.2         -15.52         -41.39          18.87         -4.464          73.59          94.24
    0.1133              -28.81          33.17           45.8          67.99         -19.19          -15.5         -41.36          18.87         -4.382          73.55          94.26
    0.1193               -28.8          33.18          45.82          67.98         -19.18         -15.49         -41.32          18.86         -4.291          73.51          94.29
    0.1252              -28.79          33.18          45.84          67.97         -19.17         -15.47         -41.28          18.85         -4.192          73.47          94.31
    0.1312              -28.78          33.18          45.86          67.95         -19.15         -15.45         -41.24          18.85         -4.082          73.42          94.34
    0.1371              -28.77          33.18          45.88          67.94         -19.14         -15.42         -41.19          18.84          -3.96          73.37          94.37
    0.1431              -28.75          33.19          45.91          67.92         -19.12          -15.4         -41.14          18.83         -3.824          73.31          94.41
    0.1491              -28.74          33.19          45.94           67.9         -19.11         -15.37         -41.08          18.82         -3.673          73.25          94.45
     0.155              -28.72           33.2          45.98          67.88         -19.09         -15.34         -41.01          18.81         -3.504          73.17          94.49
     0.161               -28.7           33.2          46.02          67.86         -19.07          -15.3         -40.93           18.8         -3.313          73.09          94.54
     0.167              -28.68          33.21          46.06          67.83         -19.04         -15.26         -40.85          18.78         -3.098           73.0           94.6
    0.1729              -28.65          33.21          46.11           67.8         -19.01         -15.22         -40.75          18.77         -2.853           72.9          94.66
    0.1789              -28.62          33.22          46.17          67.77         -18.98         -15.17         -40.64          18.75         -2.575          72.78          94.73
    0.1849              -28.59          33.23          46.23          67.73         -18.95         -15.11         -40.51          18.73         -2.254          72.64          94.82
    0.1908              -28.55          33.24          46.31          67.68          -18.9         -15.04         -40.36           18.7         -1.885          72.48          94.91
    0.1968               -28.5          33.25          46.39          67.63         -18.85         -14.96         -40.19          18.67         -1.455           72.3          95.03
    0.2027              -28.45          33.26           46.5          67.57          -18.8         -14.86         -39.99          18.64        -0.9525          72.08          95.16
    0.2087              -28.39          33.27          46.62          67.49         -18.73         -14.75         -39.76           18.6          -0.36          71.83          95.31
    0.2147              -28.31          33.29          46.76          67.41         -18.65         -14.62         -39.47          18.56          0.344          71.53          95.49
    0.2206              -28.23          33.31          46.93           67.3         -18.55         -14.46         -39.14           18.5          1.188          71.16          95.71
    0.2266              -28.12          33.34          47.14          67.18         -18.44         -14.27         -38.73          18.43          2.209          70.73          95.98
    0.2326              -27.99          33.37          47.39          67.02         -18.29         -14.04         -38.23          18.35          3.456          70.19          96.31
    0.2385              -27.82          33.41          47.71          66.83         -18.12         -13.75         -37.62          18.25          4.996          69.53          96.71
    0.2445              -27.62          33.45           48.1          66.59          -17.9         -13.39         -36.85          18.12          6.915          68.71          97.21
    0.2504              -27.37          33.51          48.59           66.3         -17.62         -12.94         -35.89          17.96          9.334          67.67          97.84
    0.2564              -27.04          33.59          49.22          65.92         -17.27         -12.36         -34.66          17.76          12.41          66.36          98.64
    0.2624              -26.63          33.69          50.02          65.43         -16.82         -11.63          -33.1           17.5          16.34          64.67          99.66
    0.2683               -26.1          33.81          51.05          64.81         -16.25         -10.68         -31.08          17.17          21.39          62.51          101.0
    0.2743              -25.42          33.97          52.36          64.01         -15.51         -9.474         -28.51          16.75          27.84          59.74          102.7
    0.2803              -24.57          34.17          54.01          63.01         -14.59         -7.957         -25.28          16.21          35.95          56.27          104.8
    0.2862              -23.53          34.42          56.02          61.79         -13.46         -6.107         -21.34          15.56          45.83          52.03          107.3
    0.2922              -22.32           34.7          58.36          60.38         -12.15         -3.964         -16.77          14.81          57.29          47.12          110.3
    0.2981              -21.01          35.01          60.88          58.85         -10.74         -1.643         -11.82          13.99          69.69          41.81          113.6
    0.3041              -19.71          35.32          63.41          57.32          -9.32          0.678          -6.88          13.18           82.1          36.49          116.8
    0.3101               -18.5           35.6          65.74           55.9         -8.013          2.822         -2.312          12.42          93.55          31.59          119.8
     0.316              -17.46          35.85          67.75          54.69         -6.885          4.671          1.628          11.77          103.4          27.35          122.4
